<?xml version="1.0" standalone="no"?>
<!DOCTYPE svg PUBLIC "-//W3C//DTD SVG 20010904//EN"
 "http://www.w3.org/TR/2001/REC-SVG-20010904/DTD/svg10.dtd">
<svg version="1.0" xmlns="http://www.w3.org/2000/svg"
 width="162.000000pt" height="162.000000pt" viewBox="0 0 162.000000 162.000000"
 preserveAspectRatio="xMidYMid meet">
<metadata>
Created by potrace 1.14, written by Peter Selinger 2001-2017
</metadata>
<g transform="translate(0.000000,162.000000) scale(0.100000,-0.100000)"
fill="#000000" stroke="none">
<path d="M1130 1166 c-159 -32 -270 -143 -298 -296 -9 -47 -7 -108 3 -119 2
-2 55 -4 117 -4 l113 -1 5 65 c9 114 68 174 163 166 88 -8 142 -71 142 -169
l0 -58 37 -1 c21 0 65 -1 98 -1 120 0 109 -8 105 75 -4 88 -23 143 -72 207
-88 112 -256 167 -413 136z"/>
<path d="M288 1113 c-11 -27 -28 -66 -38 -88 -122 -277 -240 -553 -240 -560 0
-8 230 -11 391 -6 26 1 27 3 25 61 l-1 60 -62 0 c-35 0 -63 4 -63 9 0 12 112
305 120 314 4 5 20 -24 36 -65 15 -40 31 -77 35 -82 7 -8 217 -11 225 -3 2 2
-26 71 -62 153 -35 82 -75 173 -87 201 l-22 53 -118 0 -118 0 -21 -47z"/>
<path d="M560 571 c0 -26 45 -111 59 -112 20 -1 213 -1 223 0 3 1 -5 28 -19
61 l-26 60 -119 0 c-65 0 -118 -4 -118 -9z"/>
<path d="M910 574 c0 -4 12 -17 28 -31 157 -136 413 -136 567 1 l40 35 -317 1
c-175 0 -318 -3 -318 -6z"/>
</g>
</svg>
