<svg id="Lag_1" data-name="Lag 1" xmlns="http://www.w3.org/2000/svg" viewBox="0 0 431.32635 112.97"><defs><style>.cls-1,.cls-3{fill:none;}.cls-1,.cls-2,.cls-3{stroke:#000;stroke-miterlimit:10;}.cls-1,.cls-2{stroke-width:7.16px;}.cls-3{stroke-width:0.5px;}</style></defs><g id="Layer_2" data-name="Layer 2"><path d="M228.23,14V69.52H217.91V45.71H189.18V69.52H178.86V14h10.32V36.9h28.73V14Z" transform="translate(-13.75364 -13.64)"/><path d="M276.64,56.66H251.41l-5.48,12.86H235.29L260.3,14h10.16l25.08,55.56h-13Zm105.81,0H357.22l-5.48,12.86H341.1l25-55.56h10.16l25.08,55.56h-13Zm-109.1-8.09L264.27,29,254.9,48.57Zm106.1,0L370.37,29,361,48.57Z" transform="translate(-13.75364 -13.64)"/><path d="M323.24,49.92v19.6H312.92V50.07L291.09,14h11L318.4,41l16.43-27H345Z" transform="translate(-13.75364 -13.64)"/><path d="M416.35,22.69H397.93V14h47.15v8.73H426.67V69.52H416.35Z" transform="translate(-13.75364 -13.64)"/><path d="M203.63,104.36c0,7-4.94,11.07-13.22,11.07h-9.93v11.18h-1.62V93.32h11.55C198.69,93.32,203.63,97.41,203.63,104.36Zm-1.57,0c0-6.09-4.09-9.56-11.55-9.56h-10V114h10C198,114,202.06,110.49,202.06,104.36Z" transform="translate(-13.75364 -13.64)"/><path d="M214.62,93.32h1.62v31.81h19.49v1.48H214.62Z" transform="translate(-13.75364 -13.64)"/><path d="M265.12,116.86H245.19l-4.47,9.75H239l15.41-33.29h1.57l15.4,33.29h-1.76Zm-.62-1.38-9.32-20.3-9.37,20.3Z" transform="translate(-13.75364 -13.64)"/><path d="M289.75,109.63l-7.94,8.18v8.8h-1.62V93.32h1.62v22.4l21.77-22.4h2l-14.74,15.22,15.79,18.07h-2Z" transform="translate(-13.75364 -13.64)"/><path d="M334.87,116.86H315l-4.47,9.75h-1.76l15.41-33.29h1.57l15.4,33.29h-1.76Zm-.61-1.38-9.32-20.3-9.37,20.3Z" transform="translate(-13.75364 -13.64)"/><path d="M354.61,94.8H342.39V93.32h26V94.8H356.18v31.81h-1.57Z" transform="translate(-13.75364 -13.64)"/><path d="M399.55,125.13v1.48H377.06V93.32h21.82V94.8H378.67V109h18.07v1.47H378.67v14.69Z" transform="translate(-13.75364 -13.64)"/><path d="M434.59,126.61l-8.22-11.46a21.53991,21.53991,0,0,1-3.62.28h-9.94v11.18H411.2V93.32h11.55c8.28,0,13.22,4.09,13.22,11,0,5.37-2.9,9-8,10.41l8.51,11.84ZM422.85,114c7.46,0,11.55-3.47,11.55-9.6s-4.09-9.56-11.55-9.56h-10V114Z" transform="translate(-13.75364 -13.64)"/><path class="cls-1" d="M62.35,36.61C37.54,47.49,17.58,63.26,20.57,87.47,27.45,143.23,136,129.09,135.23,46.8v75.43L13.79,123" transform="translate(-13.75364 -13.64)"/><path class="cls-2" d="M37.5,41.6a64.06017,64.06017,0,0,0-17.27,4.88V17.22H136v4.25s-55.24,7-73.62,15.14C56.56,39.18,37.5,41.6,37.5,41.6Z" transform="translate(-13.75364 -13.64)"/><polygon points="119.916 106.37 71.586 106.37 103.346 87.44 119.126 61.34 119.916 106.37"/><polygon class="cls-3" points="124.846 112.71 4.446 112.71 0.036 112.71 124.846 94.36 124.846 112.71"/></g></svg>