<?xml version="1.0" encoding="UTF-8"?>
<svg xmlns="http://www.w3.org/2000/svg" xmlns:xlink="http://www.w3.org/1999/xlink" width="361pt" height="87pt" viewBox="0 0 361 87" version="1.1">
<g id="surface1">
<path style=" stroke:none;fill-rule:evenodd;fill:rgb(0%,15.696716%,27.050781%);fill-opacity:1;" d="M 0.0195313 25.234375 L 0.0195313 25.5 C 0.0234375 26.117188 0.0859375 26.691406 0.835938 27.296875 C 2.023438 28.265625 6.125 27.875 8.417969 27.875 L 8.417969 78.992188 C 6.664063 78.992188 5.0625 79.480469 3.410156 79.746094 C 2.597656 79.875 1.800781 79.925781 1.160156 80.375 C -1.066406 81.933594 0.421875 84.753906 2.417969 84.753906 L 29.78125 84.753906 C 31.777344 84.753906 33.265625 81.933594 31.039063 80.375 C 30.09375 79.714844 23.832031 78.992188 22.820313 78.992188 L 22.820313 34.113281 C 22.820313 33.484375 25.054688 30.496094 25.527344 29.859375 C 32.210938 20.882813 43.425781 19.359375 47.339844 26.875 C 48.824219 29.730469 49.460938 33.710938 49.460938 37.953125 L 49.460938 78.992188 C 47.78125 78.992188 45.835938 79.480469 44.210938 79.742188 C 38.382813 80.691406 41.25 84.753906 43.21875 84.753906 L 70.097656 84.753906 C 73.375 84.753906 73.558594 81.167969 71.546875 80.1875 C 70.414063 79.636719 65.578125 79.394531 63.859375 78.992188 L 63.773438 33.789063 C 64.578125 31.445313 69.527344 25.789063 72.421875 24.195313 C 78.023438 21.105469 85.402344 20.996094 88.582031 27.390625 C 90.210938 30.664063 90.738281 34.75 90.738281 39.632813 L 90.738281 78.992188 C 89.230469 78.992188 87.050781 79.449219 85.664063 79.675781 C 83.097656 80.09375 82.097656 80.226563 82.097656 82.59375 C 82.097656 84.066406 83.242188 84.753906 84.738281 84.753906 L 111.621094 84.753906 C 113.679688 84.753906 116.265625 80.683594 110.835938 79.777344 C 103.648438 78.578125 104.898438 80.34375 104.898438 73.714844 L 104.898438 43.714844 C 104.898438 34.015625 104.421875 25.929688 99.347656 19.503906 C 98.480469 18.40625 97.4375 17.449219 96.164063 16.6875 C 90.9375 13.5625 84.164063 13.621094 78.40625 15.542969 C 67.835938 19.066406 63.792969 27.585938 62.417969 28.59375 C 62.128906 25.117188 59.386719 20.601563 57.085938 18.328125 C 50.738281 12.0625 38.78125 13.535156 31.410156 18.464844 C 25.316406 22.542969 23.308594 27.164063 22.339844 27.875 C 22.339844 26.367188 22.414063 24.851563 22.199219 23.453125 L 21.851563 14.683594 C 21.632813 11.5625 20.789063 12.035156 17.058594 12.035156 C 13.917969 12.035156 13.726563 19.632813 4.855469 22.386719 C 2.960938 22.976563 0.0195313 22.660156 0.0195313 25.234375 "/>
<path style=" stroke:none;fill-rule:evenodd;fill:rgb(0%,15.696716%,27.050781%);fill-opacity:1;" d="M 257.539063 67.714844 C 257.539063 60.441406 259.332031 57.09375 265.9375 53.792969 L 279.140625 47.074219 C 279.140625 54.269531 279.105469 61.476563 279.140625 68.675781 C 279.152344 71.226563 279.242188 71.339844 277.882813 72.699219 C 269.46875 81.109375 257.539063 79.65625 257.539063 67.714844 Z M 245.777344 28.832031 C 245.777344 31.253906 245.890625 33.007813 247.632813 34.898438 C 250.164063 37.648438 255.5 38.109375 257.214844 33.789063 C 257.902344 32.054688 257.542969 29.089844 257.539063 26.914063 C 257.53125 22.03125 258.113281 19.953125 265.460938 19.953125 C 271.253906 19.953125 275.136719 22.855469 277.066406 26.828125 C 279.300781 31.417969 279.140625 36.554688 279.140625 43.234375 C 278.03125 43.492188 277.300781 43.859375 276.289063 44.222656 L 256.1875 51.480469 C 248.804688 54.09375 242.179688 60.242188 242.179688 69.875 C 242.179688 79.355469 249.546875 85.953125 258.257813 85.953125 C 263.742188 85.953125 267.5625 85.09375 271.714844 82.605469 C 273.246094 81.6875 274.746094 80.707031 276.078125 79.53125 C 278.125 77.722656 278.195313 77.273438 279.617188 75.632813 C 279.992188 80.105469 281.550781 83.613281 285.886719 85.207031 C 290.023438 86.726563 295.285156 85.421875 298.773438 83.75 C 307.460938 79.585938 304.410156 76.433594 301.574219 77.417969 C 293.355469 80.265625 294.28125 76.855469 293.4375 71.175781 C 293.027344 68.402344 293.296875 42.257813 293.300781 38.195313 C 293.324219 17.867188 282.308594 11.410156 263.515625 15.132813 C 256.710938 16.476563 245.777344 20.707031 245.777344 28.832031 "/>
<path style=" stroke:none;fill-rule:evenodd;fill:rgb(0%,15.696716%,27.050781%);fill-opacity:1;" d="M 137.777344 67.953125 C 137.777344 64.230469 137.929688 61.308594 140.273438 58.207031 C 142.992188 54.617188 148.285156 52.992188 152.671875 50.445313 C 154.757813 49.230469 157.21875 48.214844 159.378906 47.074219 C 159.378906 54.269531 159.34375 61.476563 159.378906 68.675781 C 159.394531 71.226563 159.484375 71.339844 158.125 72.699219 C 154.253906 76.5625 147.738281 79.753906 142.570313 77.082031 C 139.597656 75.546875 137.777344 71.640625 137.777344 67.953125 Z M 126.019531 28.832031 C 126.019531 31.15625 126.242188 33.414063 128.003906 35.007813 C 130.886719 37.613281 135.398438 38.066406 137.398438 33.972656 C 139.894531 28.859375 132.953125 19.953125 145.699219 19.953125 C 148.628906 19.953125 151.101563 20.765625 152.917969 21.855469 C 154.914063 23.050781 156.210938 24.648438 157.300781 26.832031 C 159.632813 31.484375 159.378906 36.453125 159.378906 43.234375 L 153.710938 45.246094 C 151.648438 45.960938 149.894531 46.6875 147.890625 47.34375 C 143.894531 48.660156 134.65625 51.777344 131.152344 54.125 C 128.1875 56.113281 125.21875 59.210938 123.785156 62.601563 C 119.234375 73.367188 126.113281 85.953125 138.5 85.953125 C 144.875 85.953125 149.371094 84.574219 153.894531 81.429688 C 158.152344 78.472656 158.9375 76.503906 159.53125 75.976563 C 159.734375 75.792969 159.566406 75.164063 159.976563 75.984375 C 160.183594 76.402344 160.078125 76.539063 160.128906 77.027344 C 161.152344 87.542969 173.050781 88.199219 182.761719 81.492188 C 186.410156 78.972656 184.53125 76.496094 181.851563 77.449219 C 174.554688 80.046875 174.292969 77.804688 173.765625 71.085938 C 173.234375 64.285156 173.535156 45.671875 173.539063 38.195313 C 173.542969 30.894531 172.101563 24.917969 168.949219 20.707031 C 160.605469 9.5625 136.433594 14.542969 129.433594 21.6875 C 128.019531 23.128906 126.019531 26.089844 126.019531 28.832031 "/>
<path style=" stroke:none;fill-rule:evenodd;fill:rgb(0%,15.696716%,27.050781%);fill-opacity:1;" d="M 314.898438 32.671875 C 314.898438 38.480469 315.253906 40.707031 318.839844 45.292969 C 320.128906 46.941406 323.234375 49.285156 325.054688 50.355469 L 337.804688 57.53125 C 342.472656 60.324219 347.234375 63.382813 347.753906 70.15625 C 347.960938 72.863281 346.683594 76.285156 344.605469 78.21875 C 340.585938 81.945313 332.253906 81.808594 327.230469 79.859375 C 323.0625 78.242188 326.089844 71.945313 324.699219 67.511719 C 322.964844 61.96875 314.460938 63.515625 313.242188 69.898438 C 311.519531 78.941406 321.78125 86.195313 333.140625 86.195313 L 334.222656 86.195313 C 338.464844 86.191406 342.394531 86.109375 346.34375 84.519531 C 349.144531 83.390625 350.921875 82.589844 353.203125 80.816406 C 356.652344 78.125 360.257813 72.773438 360.257813 66.753906 C 360.257813 61.988281 360.015625 58.914063 357.285156 54.847656 C 352.339844 47.480469 346.878906 46.125 340.679688 42.410156 C 336.78125 40.078125 334.460938 39.527344 330.117188 36.175781 C 325.03125 32.253906 326.074219 22.042969 335.003906 19.898438 C 338.125 19.148438 343.140625 18.601563 345.796875 20.734375 C 349.578125 23.773438 344.773438 31.929688 349.378906 35.15625 C 352.40625 37.28125 359.058594 35.3125 359.058594 28.113281 C 359.058594 25.570313 358.039063 23.328125 356.933594 21.839844 C 349.800781 12.203125 332.109375 12.320313 322.625 18.796875 C 320.628906 20.160156 318.496094 22.210938 317.304688 24.28125 C 316.125 26.335938 314.898438 29.464844 314.898438 32.671875 "/>
<path style=" stroke:none;fill-rule:evenodd;fill:rgb(0%,15.696716%,27.050781%);fill-opacity:1;" d="M 198.738281 43.714844 L 198.738281 69.875 C 198.738281 73.179688 199.257813 76.792969 200.894531 79.238281 C 204.035156 83.929688 207.992188 85.273438 213.84375 85.730469 C 220.398438 86.242188 226.664063 84.523438 231.199219 80.492188 C 233.113281 78.789063 235.796875 76.53125 234.210938 74.71875 C 231.503906 71.628906 229.578125 78.992188 220.339844 78.992188 C 212.625 78.992188 212.898438 68.792969 212.898438 62.195313 L 212.898438 23.074219 L 230.898438 23.074219 C 234.015625 23.074219 234.015625 17.792969 230.898438 17.792969 L 212.898438 17.792969 L 212.898438 1.953125 C 212.898438 0.84375 212.335938 0.417969 211.355469 0.273438 L 207.140625 0.273438 C 205.972656 0.273438 204.488281 4.136719 203.621094 5.875 C 201.074219 10.96875 198.445313 16.984375 192.734375 17.789063 C 191.210938 18.003906 189.769531 17.832031 188.949219 18.800781 C 188.15625 19.738281 188.035156 20.925781 188.742188 22.027344 C 189.539063 23.257813 190.40625 23.085938 192.257813 23.074219 C 200.054688 23.023438 199.023438 22.542969 198.984375 25.46875 C 198.898438 31.738281 198.738281 37.367188 198.738281 43.714844 "/>
</g>
</svg>
