<svg id="Tegnebræt_1" data-name="Tegnebræt 1" xmlns="http://www.w3.org/2000/svg" width="555.999" height="98.092" viewBox="0 0 555.999 98.092">
  <g id="TECHON7">
    <path id="Path_1" data-name="Path 1" d="M28.933,144.479h86.383v17.49H28.933Zm44.625,21.863H95.42v53.345H73.558Z" transform="translate(-28.933 -122.472)" fill="#4a627c"/>
    <path id="Path_2" data-name="Path 2" d="M348.4,144.479h21.862v75.207H348.4Zm26.454,0h27.765V161.2H374.859Zm0,28.859h22.628v16.725H374.859Zm0,29.624h27.765v16.725H374.859Z" transform="translate(-253.934 -122.472)" fill="#4a627c"/>
    <path id="Path_3" data-name="Path 3" d="M584.6,216.557a17.843,17.843,0,0,1-9.674-6.395,25.608,25.608,0,0,1-4.318-11.314,122.673,122.673,0,0,1-1.148-18.856,138.8,138.8,0,0,1,.82-16.834,33.747,33.747,0,0,1,3.006-10.822,16.26,16.26,0,0,1,6.723-6.941,32.214,32.214,0,0,1,11.751-3.334v37.932q0,6.123.219,11.806a12.989,12.989,0,0,0,1.695,6.559,6.649,6.649,0,0,0,4.646,2.733,46.624,46.624,0,0,0,9.073.656A87.066,87.066,0,0,0,618,201.2a39.816,39.816,0,0,0,4.263-.547V216.5a78.885,78.885,0,0,1-12.134,1.64q-3.717.328-8.2.328Q591,218.47,584.6,216.557Zm11.751-74.934a24.7,24.7,0,0,1,2.733-.109h2.842a92.8,92.8,0,0,1,14.32,1.093,50.591,50.591,0,0,1,5.575,1.093v15.632q-1.639-.107-5.465-.546a86.346,86.346,0,0,0-8.964-.547,67.927,67.927,0,0,0-6.832.273,16.127,16.127,0,0,0-4.208.929Z" transform="translate(-409.623 -120.381)" fill="#4a627c"/>
    <path id="Path_4" data-name="Path 4" d="M786.083,144.479h21.862v75.207H786.083Zm42.195,46.239H812.537v-17.49h15.74V144.479H850.14v75.207H828.277Z" transform="translate(-562.187 -122.472)" fill="#4a627c"/>
    <path id="Path_5" data-name="Path 5" d="M1054.157,214.973a14.516,14.516,0,0,1-5.684-4.7,20.335,20.335,0,0,1-3.06-7.324,49.354,49.354,0,0,1-1.094-8.8q-.219-4.973-.218-14.156,0-11.478.491-17.6a29.562,29.562,0,0,1,2.46-10.275,15.241,15.241,0,0,1,6.668-6.887q4.481-2.4,12.681-3.279v38.041q0,6.451.218,12.352a19.444,19.444,0,0,0,1.149,6.559,3.861,3.861,0,0,0,3.114,2.4,30.588,30.588,0,0,0,6.231.437,37.2,37.2,0,0,0,6.121-.328v16.943q-1.472.128-2.951.109h-3.17Q1061.151,218.471,1054.157,214.973Zm33.669-34.98q0-9.51-.11-12.462a17.905,17.905,0,0,0-1.2-6.5,4.3,4.3,0,0,0-3.171-2.459,44.834,44.834,0,0,0-6.23-.328,26.259,26.259,0,0,0-6.122.437V141.624a29.508,29.508,0,0,1,2.952-.109h3.17q12.242,0,18.966,1.913t9.783,6.286a22.425,22.425,0,0,1,3.554,10.6q.709,6.559.71,19.676,0,11.478-.492,17.654a28.614,28.614,0,0,1-2.46,10.221,15.069,15.069,0,0,1-6.722,7q-4.538,2.406-12.626,3.17Z" transform="translate(-743.906 -120.382)" fill="#4a627c"/>
    <path id="Path_6" data-name="Path 6" d="M1308.78,147.54v-3.061h21.862l42.2,72.037v3.17h-21.753Zm0,9.073,20.77,35.527v27.547h-20.77Zm43.288,15.3V144.479h20.77v62.964Z" transform="translate(-930.316 -122.472)" fill="#4a627c"/>
    <path id="Path_7" data-name="Path 7" d="M1560.89,143.382l63.085-.461-6.789,15.874-.656,1.53H1560.89Zm30.934,21.316h22.738l-23.393,53.891h-23.939Z" transform="translate(-1107.875 -121.375)" fill="#4a627c"/>
    <path id="Path_8" data-name="Path 8" d="M1531.95.46,1634.937,0l-6.364,15.905-.515,1.268-96.108.231Z" transform="translate(-1078.938)" fill="#4a627c"/>
  </g>
</svg>
